{
	"asset":{
		"generator":"Khronos glTF Blender I/O v4.2.57",
		"version":"2.0"
	},
	"extensionsUsed":[
		"KHR_materials_emissive_strength"
	],
	"scene":0,
	"scenes":[
		{
			"name":"Scene",
			"nodes":[
				0,
				1,
				2,
				3
			]
		}
	],
	"nodes":[
		{
			"mesh":0,
			"name":"Cylinder",
			"scale":[
				1.0802026987075806,
				1.0802026987075806,
				1.0802026987075806
			]
		},
		{
			"mesh":1,
			"name":"path3",
			"rotation":[
				0.5,
				0.5,
				-0.5,
				0.5
			],
			"scale":[
				8.690393447875977,
				8.690393447875977,
				8.690393447875977
			],
			"translation":[
				0,
				0.0520094633102417,
				-0.20239216089248657
			]
		},
		{
			"mesh":2,
			"name":"path7",
			"rotation":[
				0.5,
				0.5,
				-0.5,
				0.5
			],
			"scale":[
				8.690393447875977,
				8.690393447875977,
				8.690393447875977
			],
			"translation":[
				0,
				0.48197776079177856,
				-0.13087177276611328
			]
		},
		{
			"mesh":3,
			"name":"path2",
			"rotation":[
				0.5,
				0.5,
				-0.5,
				0.5
			],
			"scale":[
				8.690393447875977,
				8.690393447875977,
				8.690393447875977
			],
			"translation":[
				0,
				0.3020998239517212,
				0.07897162437438965
			]
		}
	],
	"materials":[
		{
			"doubleSided":true,
			"name":"gold",
			"pbrMetallicRoughness":{
				"baseColorFactor":[
					1,
					0.3723691999912262,
					0.03302004933357239,
					1
				]
			}
		},
		{
			"doubleSided":true,
			"emissiveFactor":[
				0.11652194771165054,
				1,
				0
			],
			"extensions":{
				"KHR_materials_emissive_strength":{
					"emissiveStrength":1.3284220634922406
				}
			},
			"name":"emission",
			"pbrMetallicRoughness":{
				"baseColorFactor":[
					0,
					0,
					0,
					1
				]
			}
		}
	],
	"meshes":[
		{
			"name":"Cylinder.002",
			"primitives":[
				{
					"attributes":{
						"POSITION":0,
						"NORMAL":1,
						"TEXCOORD_0":2
					},
					"indices":3,
					"material":0
				},
				{
					"attributes":{
						"POSITION":4,
						"NORMAL":5,
						"TEXCOORD_0":6
					},
					"indices":7,
					"material":1
				}
			]
		},
		{
			"name":"path3",
			"primitives":[
				{
					"attributes":{
						"POSITION":8,
						"NORMAL":9,
						"TEXCOORD_0":10
					},
					"indices":11,
					"material":0
				},
				{
					"attributes":{
						"POSITION":12,
						"NORMAL":13,
						"TEXCOORD_0":14
					},
					"indices":15,
					"material":1
				}
			]
		},
		{
			"name":"path7.002",
			"primitives":[
				{
					"attributes":{
						"POSITION":16,
						"NORMAL":17,
						"TEXCOORD_0":18
					},
					"indices":19,
					"material":0
				},
				{
					"attributes":{
						"POSITION":20,
						"NORMAL":21,
						"TEXCOORD_0":22
					},
					"indices":23,
					"material":1
				}
			]
		},
		{
			"name":"path2",
			"primitives":[
				{
					"attributes":{
						"POSITION":24,
						"NORMAL":25,
						"TEXCOORD_0":26
					},
					"indices":27,
					"material":0
				},
				{
					"attributes":{
						"POSITION":28,
						"NORMAL":29,
						"TEXCOORD_0":30
					},
					"indices":31,
					"material":1
				}
			]
		}
	],
	"accessors":[
		{
			"bufferView":0,
			"componentType":5126,
			"count":1238,
			"max":[
				-0.007307987194508314,
				0.9190595149993896,
				0.9190595746040344
			],
			"min":[
				-0.09235510230064392,
				-0.9190597534179688,
				-0.9190595746040344
			],
			"type":"VEC3"
		},
		{
			"bufferView":1,
			"componentType":5126,
			"count":1238,
			"type":"VEC3"
		},
		{
			"bufferView":2,
			"componentType":5126,
			"count":1238,
			"type":"VEC2"
		},
		{
			"bufferView":3,
			"componentType":5123,
			"count":6240,
			"type":"SCALAR"
		},
		{
			"bufferView":4,
			"componentType":5126,
			"count":192,
			"max":[
				-0.016358952969312668,
				0.8643127679824829,
				0.8643128275871277
			],
			"min":[
				-0.09235510230064392,
				-0.864313006401062,
				-0.8643128275871277
			],
			"type":"VEC3"
		},
		{
			"bufferView":5,
			"componentType":5126,
			"count":192,
			"type":"VEC3"
		},
		{
			"bufferView":6,
			"componentType":5126,
			"count":192,
			"type":"VEC2"
		},
		{
			"bufferView":7,
			"componentType":5123,
			"count":576,
			"type":"SCALAR"
		},
		{
			"bufferView":8,
			"componentType":5126,
			"count":2186,
			"max":[
				0.044714584946632385,
				0.009499999694526196,
				0.07441315799951553
			],
			"min":[
				-0.08817547559738159,
				-0.009499999694526196,
				-0.0531310960650444
			],
			"type":"VEC3"
		},
		{
			"bufferView":9,
			"componentType":5126,
			"count":2186,
			"type":"VEC3"
		},
		{
			"bufferView":10,
			"componentType":5126,
			"count":2186,
			"type":"VEC2"
		},
		{
			"bufferView":11,
			"componentType":5123,
			"count":8814,
			"type":"SCALAR"
		},
		{
			"bufferView":12,
			"componentType":5126,
			"count":4270,
			"max":[
				0.044714584946632385,
				0.009499999694526196,
				0.07441315799951553
			],
			"min":[
				-0.08817547559738159,
				-0.009499999694526196,
				-0.0531310960650444
			],
			"type":"VEC3"
		},
		{
			"bufferView":13,
			"componentType":5126,
			"count":4270,
			"type":"VEC3"
		},
		{
			"bufferView":14,
			"componentType":5126,
			"count":4270,
			"type":"VEC2"
		},
		{
			"bufferView":15,
			"componentType":5123,
			"count":21750,
			"type":"SCALAR"
		},
		{
			"bufferView":16,
			"componentType":5126,
			"count":148,
			"max":[
				0.01143412385135889,
				0.00930000003427267,
				0.0074540539644658566
			],
			"min":[
				-0.014876263216137886,
				-0.00930000003427267,
				-0.003248369786888361
			],
			"type":"VEC3"
		},
		{
			"bufferView":17,
			"componentType":5126,
			"count":148,
			"type":"VEC3"
		},
		{
			"bufferView":18,
			"componentType":5126,
			"count":148,
			"type":"VEC2"
		},
		{
			"bufferView":19,
			"componentType":5123,
			"count":564,
			"type":"SCALAR"
		},
		{
			"bufferView":20,
			"componentType":5126,
			"count":350,
			"max":[
				0.01143412385135889,
				0.00930000003427267,
				0.0074540539644658566
			],
			"min":[
				-0.014876263216137886,
				-0.00930000003427267,
				-0.003248369786888361
			],
			"type":"VEC3"
		},
		{
			"bufferView":21,
			"componentType":5126,
			"count":350,
			"type":"VEC3"
		},
		{
			"bufferView":22,
			"componentType":5126,
			"count":350,
			"type":"VEC2"
		},
		{
			"bufferView":23,
			"componentType":5123,
			"count":1728,
			"type":"SCALAR"
		},
		{
			"bufferView":24,
			"componentType":5126,
			"count":323,
			"max":[
				0.01570703089237213,
				0.012000000104308128,
				0.016863316297531128
			],
			"min":[
				-0.01573881134390831,
				-0.012000000104308128,
				-0.014575883746147156
			],
			"type":"VEC3"
		},
		{
			"bufferView":25,
			"componentType":5126,
			"count":323,
			"type":"VEC3"
		},
		{
			"bufferView":26,
			"componentType":5126,
			"count":323,
			"type":"VEC2"
		},
		{
			"bufferView":27,
			"componentType":5123,
			"count":948,
			"type":"SCALAR"
		},
		{
			"bufferView":28,
			"componentType":5126,
			"count":622,
			"max":[
				0.01570703089237213,
				0.012000000104308128,
				0.016863316297531128
			],
			"min":[
				-0.01573881134390831,
				-0.012000000104308128,
				-0.014575883746147156
			],
			"type":"VEC3"
		},
		{
			"bufferView":29,
			"componentType":5126,
			"count":622,
			"type":"VEC3"
		},
		{
			"bufferView":30,
			"componentType":5126,
			"count":622,
			"type":"VEC2"
		},
		{
			"bufferView":31,
			"componentType":5123,
			"count":2160,
			"type":"SCALAR"
		}
	],
	"bufferViews":[
		{
			"buffer":0,
			"byteLength":14856,
			"byteOffset":0,
			"target":34962
		},
		{
			"buffer":0,
			"byteLength":14856,
			"byteOffset":14856,
			"target":34962
		},
		{
			"buffer":0,
			"byteLength":9904,
			"byteOffset":29712,
			"target":34962
		},
		{
			"buffer":0,
			"byteLength":12480,
			"byteOffset":39616,
			"target":34963
		},
		{
			"buffer":0,
			"byteLength":2304,
			"byteOffset":52096,
			"target":34962
		},
		{
			"buffer":0,
			"byteLength":2304,
			"byteOffset":54400,
			"target":34962
		},
		{
			"buffer":0,
			"byteLength":1536,
			"byteOffset":56704,
			"target":34962
		},
		{
			"buffer":0,
			"byteLength":1152,
			"byteOffset":58240,
			"target":34963
		},
		{
			"buffer":0,
			"byteLength":26232,
			"byteOffset":59392,
			"target":34962
		},
		{
			"buffer":0,
			"byteLength":26232,
			"byteOffset":85624,
			"target":34962
		},
		{
			"buffer":0,
			"byteLength":17488,
			"byteOffset":111856,
			"target":34962
		},
		{
			"buffer":0,
			"byteLength":17628,
			"byteOffset":129344,
			"target":34963
		},
		{
			"buffer":0,
			"byteLength":51240,
			"byteOffset":146972,
			"target":34962
		},
		{
			"buffer":0,
			"byteLength":51240,
			"byteOffset":198212,
			"target":34962
		},
		{
			"buffer":0,
			"byteLength":34160,
			"byteOffset":249452,
			"target":34962
		},
		{
			"buffer":0,
			"byteLength":43500,
			"byteOffset":283612,
			"target":34963
		},
		{
			"buffer":0,
			"byteLength":1776,
			"byteOffset":327112,
			"target":34962
		},
		{
			"buffer":0,
			"byteLength":1776,
			"byteOffset":328888,
			"target":34962
		},
		{
			"buffer":0,
			"byteLength":1184,
			"byteOffset":330664,
			"target":34962
		},
		{
			"buffer":0,
			"byteLength":1128,
			"byteOffset":331848,
			"target":34963
		},
		{
			"buffer":0,
			"byteLength":4200,
			"byteOffset":332976,
			"target":34962
		},
		{
			"buffer":0,
			"byteLength":4200,
			"byteOffset":337176,
			"target":34962
		},
		{
			"buffer":0,
			"byteLength":2800,
			"byteOffset":341376,
			"target":34962
		},
		{
			"buffer":0,
			"byteLength":3456,
			"byteOffset":344176,
			"target":34963
		},
		{
			"buffer":0,
			"byteLength":3876,
			"byteOffset":347632,
			"target":34962
		},
		{
			"buffer":0,
			"byteLength":3876,
			"byteOffset":351508,
			"target":34962
		},
		{
			"buffer":0,
			"byteLength":2584,
			"byteOffset":355384,
			"target":34962
		},
		{
			"buffer":0,
			"byteLength":1896,
			"byteOffset":357968,
			"target":34963
		},
		{
			"buffer":0,
			"byteLength":7464,
			"byteOffset":359864,
			"target":34962
		},
		{
			"buffer":0,
			"byteLength":7464,
			"byteOffset":367328,
			"target":34962
		},
		{
			"buffer":0,
			"byteLength":4976,
			"byteOffset":374792,
			"target":34962
		},
		{
			"buffer":0,
			"byteLength":4320,
			"byteOffset":379768,
			"target":34963
		}
	],
	"buffers":[
		{
			"byteLength":384088,
			"uri":"Gecko%20coin%202.bin"
		}
	]
}
